<?xml version="1.0" standalone="no"?>
<!DOCTYPE svg PUBLIC "-//W3C//DTD SVG 20010904//EN"
 "http://www.w3.org/TR/2001/REC-SVG-20010904/DTD/svg10.dtd">
<svg version="1.0" xmlns="http://www.w3.org/2000/svg"
 width="700.000000pt" height="700.000000pt" viewBox="0 0 700.000000 700.000000"
 preserveAspectRatio="xMidYMid meet">
<metadata>
Created by potrace 1.14, written by Peter Selinger 2001-2017
</metadata>
<g transform="translate(0.000000,700.000000) scale(0.100000,-0.100000)"
fill="#000000" stroke="none">
<path d="M4 6888 c8 -159 36 -348 61 -419 14 -39 8 -53 -18 -43 -34 13 -40
-49 -44 -456 l-5 -395 144 -140 c178 -173 205 -197 346 -315 115 -95 142 -130
121 -156 -6 -8 -17 -14 -23 -14 -25 0 -135 60 -188 104 -70 57 -102 101 -103
140 0 25 -5 32 -25 36 -48 10 -88 40 -169 127 -45 48 -81 81 -82 73 0 -8 -2
-24 -5 -35 -2 -11 -4 -54 -5 -95 -2 -83 9 -116 63 -196 22 -32 44 -84 58 -135
33 -128 63 -171 145 -214 65 -34 69 -50 33 -127 -35 -77 -28 -77 -138 2 -36
26 -83 57 -105 69 -37 19 -40 20 -46 4 -10 -28 -12 -113 -12 -433 -1 -344 5
-420 32 -420 20 0 58 39 90 93 27 44 121 234 121 243 0 23 117 199 156 233 53
47 81 51 113 17 18 -19 21 -30 15 -65 -6 -36 -4 -41 12 -41 26 1 66 38 114
106 41 59 49 87 28 100 -7 4 -46 7 -87 6 -101 -2 -110 4 -86 59 27 60 72 119
98 128 36 14 72 -6 237 -129 86 -64 168 -124 182 -134 25 -17 26 -16 116 58
l92 74 -118 102 c-199 174 -270 247 -267 275 1 6 4 20 9 32 22 65 472 352 577
369 32 6 38 3 44 -17 4 -13 7 -73 5 -133 -3 -140 -1 -206 5 -227 8 -25 47 -37
108 -35 44 2 63 8 83 27 31 29 29 60 -10 164 -41 112 -32 214 25 280 51 58
179 85 179 37 0 -9 -11 -34 -24 -53 -39 -58 -42 -84 -12 -113 20 -21 35 -26
76 -26 84 0 150 41 165 102 6 23 3 29 -16 37 -29 11 -64 -8 -64 -35 0 -11 -4
-25 -9 -32 -13 -21 -33 3 -46 56 -27 114 12 162 195 243 27 12 63 22 80 23 29
1 30 -1 28 -37 -1 -21 -18 -84 -37 -140 -56 -167 -65 -203 -82 -320 -8 -58
-17 -65 -42 -32 -41 52 -93 7 -56 -49 54 -84 175 -116 267 -71 57 27 73 84 21
71 -18 -5 -24 -2 -24 10 0 24 39 84 56 84 17 0 76 123 139 290 82 218 140 319
166 293 5 -5 12 -55 13 -111 5 -124 12 -161 39 -189 40 -44 111 -19 165 59 28
41 48 93 72 186 13 51 31 54 88 12 52 -37 189 -172 229 -225 90 -118 136 -253
99 -294 -13 -15 -29 -17 -87 -15 -60 2 -74 -1 -91 -18 -17 -17 -19 -28 -13
-66 10 -66 30 -109 54 -117 19 -6 26 -21 22 -52 -4 -28 39 -41 125 -37 46 3
84 3 84 0 0 -2 -27 -23 -61 -45 -106 -71 -166 -79 -619 -86 -529 -9 -582 -16
-775 -109 -225 -109 -269 -182 -63 -105 82 31 194 66 233 74 185 38 416 52
540 34 33 -5 96 -13 140 -19 44 -5 98 -12 120 -15 22 -3 103 -8 180 -11 77 -4
144 -10 148 -14 23 -21 -169 -131 -287 -165 -81 -24 -93 -18 -61 25 14 19 24
44 23 55 -5 35 -72 31 -271 -19 -100 -24 -207 -49 -237 -55 -30 -6 -64 -13
-75 -15 -11 -3 -92 -19 -180 -36 -88 -17 -218 -42 -290 -56 -370 -72 -524
-127 -967 -349 -282 -141 -434 -231 -593 -350 -90 -67 -147 -99 -196 -109 -30
-6 -46 -35 -53 -96 -6 -59 -17 -87 -54 -133 -52 -65 -57 -119 -57 -702 0 -425
3 -524 14 -544 l14 -25 35 38 c19 21 33 34 31 30 -2 -5 -24 -49 -49 -99 -37
-75 -44 -100 -45 -148 0 -40 4 -61 15 -68 13 -9 133 -6 220 6 14 1 50 6 80 10
83 10 209 33 265 48 105 27 194 18 134 -14 -79 -42 -180 -64 -344 -74 -111 -7
-159 -13 -298 -35 l-77 -13 0 -859 0 -860 1623 5 c1574 6 1713 7 1854 22 78 8
108 18 121 41 8 14 10 13 16 -9 11 -43 51 -49 411 -54 l330 -5 39 94 c205 496
262 654 364 1013 51 176 189 706 217 825 5 23 72 298 102 423 37 146 39 148
162 142 97 -5 100 -4 169 30 179 90 278 305 218 475 -9 25 -16 55 -16 67 0 44
83 92 137 79 14 -4 57 -37 96 -75 84 -78 139 -113 220 -136 201 -58 368 18
372 168 2 51 3 52 31 51 37 -2 137 -40 164 -62 l22 -17 -41 -60 c-67 -101
-203 -231 -279 -267 -137 -65 -397 -365 -427 -493 -17 -77 -71 -100 -119 -49
-51 56 -59 -20 -11 -102 84 -143 297 -210 448 -141 99 45 106 56 278 413 38
78 89 169 115 203 96 128 264 291 300 291 8 0 26 -11 40 -25 22 -22 25 -23 31
-8 11 29 6 286 -5 316 -13 31 -49 37 -59 10 -10 -27 -84 -121 -181 -230 -166
-187 -252 -295 -252 -318 0 -37 -116 -105 -179 -105 -45 0 -85 -26 -157 -103
-72 -75 -120 -111 -139 -103 -43 16 7 97 156 251 62 63 114 113 116 111 3 -2
-3 -18 -11 -35 -21 -40 -20 -44 10 -80 28 -34 44 -33 44 2 0 57 161 268 485
637 149 170 153 177 171 236 17 60 13 101 -12 111 -22 8 -32 -12 -27 -58 13
-110 -179 -301 -203 -202 -14 54 43 199 84 218 29 13 36 42 24 100 -12 58 -2
64 74 43 30 -9 57 -12 60 -7 3 5 1 9 -3 9 -5 0 -26 15 -46 34 -46 42 -46 62
-7 160 16 41 32 96 36 123 3 26 8 57 10 68 22 106 28 1761 6 1823 -3 9 -20 4
-61 -19 -57 -32 -301 -196 -377 -253 -23 -17 -52 -38 -64 -46 -35 -23 -138
-108 -145 -120 -4 -6 -21 -8 -41 -4 -30 5 -35 3 -44 -20 -8 -22 -14 -25 -38
-20 -27 5 -29 3 -29 -20 0 -37 -17 -53 -64 -59 -23 -3 -64 -20 -93 -38 -30
-19 -65 -32 -84 -33 -26 0 -31 -3 -26 -15 4 -9 9 -28 11 -43 5 -26 4 -27 -47
-26 -66 0 -165 -48 -233 -113 -39 -38 -47 -51 -43 -73 6 -35 -18 -45 -133 -50
-116 -5 -166 -20 -192 -56 -19 -25 -25 -27 -47 -19 -31 12 -47 -1 -37 -30 3
-11 28 -54 56 -96 27 -42 50 -86 52 -98 2 -19 -2 -22 -31 -19 -26 3 -41 -4
-79 -37 -27 -24 -57 -41 -72 -42 -73 -3 -69 0 -57 -51 5 -20 2 -30 -12 -37
-19 -10 -27 -6 -96 43 -28 20 -46 13 -67 -26 -8 -16 -7 -17 15 -9 46 18 93
-13 60 -40 -40 -33 -133 9 -172 80 -36 64 -31 80 46 137 107 82 141 111 250
220 74 75 102 110 102 128 0 30 14 40 63 42 83 4 224 87 532 314 227 166 446
321 850 600 154 106 290 202 303 214 48 43 54 92 59 504 l5 382 -325 0 -326 0
4 -57 c3 -32 7 -78 10 -103 2 -25 7 -90 11 -145 3 -55 8 -120 9 -145 23 -338
23 -723 0 -760 -10 -17 -22 -3 -31 37 -4 21 -8 40 -9 43 -1 4 -7 59 -20 175
-5 41 -14 163 -20 265 -3 47 -7 105 -10 130 -3 25 -7 81 -10 125 -9 128 -27
321 -31 338 -1 4 -2 27 -3 52 l-1 45 -329 0 -329 0 -156 -212 c-242 -331 -340
-443 -645 -748 -207 -207 -377 -350 -413 -350 -56 0 4 83 211 294 80 81 155
158 166 170 11 12 47 51 80 87 33 35 78 85 100 109 53 59 216 259 282 346 29
38 89 116 133 173 44 58 78 106 77 108 -11 10 -388 22 -431 13 -31 -6 -31 -7
-28 -61 3 -47 10 -97 27 -191 3 -13 10 -54 18 -93 16 -88 8 -135 -30 -183 -38
-47 -114 -105 -124 -95 -4 4 -10 31 -13 58 -18 168 -98 492 -125 510 -19 11
-33 -25 -27 -69 5 -34 2 -54 -15 -90 -23 -50 -100 -125 -130 -127 -11 -1 -23
-3 -29 -4 -5 -1 -18 -3 -27 -4 -13 -1 -7 -9 20 -28 20 -14 37 -30 37 -36 0
-13 -60 -1 -116 24 -42 18 -46 21 -39 47 3 15 44 79 89 142 107 150 120 171
109 180 -17 18 -129 21 -763 26 l-655 6 55 -49 c227 -200 264 -265 263 -466 0
-62 -11 -84 -38 -73 -14 5 -16 14 -10 52 7 52 -8 129 -37 188 -11 21 -50 69
-86 106 -150 150 -315 240 -436 237 -80 -3 -95 -26 -121 -186 -27 -162 -132
-590 -191 -781 -41 -129 -60 -173 -74 -165 -15 10 -12 43 15 150 27 104 104
441 111 485 2 14 9 45 14 70 15 67 18 82 45 245 14 82 25 157 25 167 0 17 -21
18 -346 18 l-347 0 7 -37 c12 -68 17 -168 9 -179 -18 -26 -52 -26 -78 0 -26
26 -27 35 -27 154 l0 62 -240 0 -240 0 7 -122 c14 -209 10 -351 -10 -400 -6
-16 -53 -34 -62 -24 -3 3 -7 20 -9 38 -2 18 -6 58 -9 88 -8 79 -15 140 -20
176 -2 17 -7 55 -10 85 -4 30 -9 69 -13 88 -12 54 -50 63 -292 67 -213 4 -250
0 -250 -21 0 -7 18 -33 40 -56 22 -24 40 -47 40 -52 0 -5 -20 -6 -46 -2 l-46
7 5 -39 c3 -22 28 -129 56 -239 27 -109 52 -219 55 -243 8 -70 -27 -120 -60
-86 -23 23 -42 85 -94 310 -59 254 -82 328 -115 377 -27 40 -65 54 -123 45
-42 -7 -49 -12 -56 -47 -19 -97 -220 -447 -294 -513 -84 -75 23 182 188 451
l69 112 -201 0 -201 0 7 -112z m5933 -70 c18 -23 79 -250 107 -393 27 -139 66
-348 71 -375 31 -196 37 -243 37 -293 0 -69 -6 -79 -25 -40 -16 31 -25 76 -32
170 -6 70 -36 252 -66 398 -12 55 -23 111 -26 125 -8 46 -64 284 -79 334 -16
57 -18 86 -5 86 5 0 13 -6 18 -12z m-4969 -114 c76 -80 197 -234 223 -286 23
-45 17 -80 -18 -108 -14 -11 -29 -20 -33 -20 -10 0 -108 132 -153 206 -49 81
-105 201 -113 242 -11 52 22 41 94 -34z m934 12 c12 -18 9 -26 -9 -26 -19 0
-50 23 -73 53 -13 18 -12 18 31 1 24 -10 47 -22 51 -28z m4712 -61 c3 -22 5
-46 6 -53 0 -27 19 0 25 38 9 52 21 51 29 -3 4 -24 8 -55 11 -68 2 -13 6 -53
10 -89 3 -36 8 -86 11 -111 10 -82 11 -283 2 -319 -10 -36 -40 -70 -63 -70
-17 0 -23 19 -30 105 -3 39 -8 90 -10 114 -13 118 -25 510 -17 525 7 12 18
-20 26 -69z m-2762 -100 c0 -45 -19 -61 -44 -38 -24 21 -23 44 3 72 27 28 41
16 41 -34z m-1526 14 c13 -13 24 -31 24 -41 0 -38 -107 -35 -135 5 -19 27 -19
32 2 52 22 22 77 14 109 -16z m1904 -87 c0 -10 -49 -56 -125 -116 -33 -27
-113 -99 -177 -162 -117 -113 -201 -170 -228 -154 -21 13 -4 52 60 137 72 96
78 120 51 193 -12 30 -21 57 -21 60 0 2 22 -19 48 -48 55 -59 59 -59 143 -6
57 36 109 57 109 44 0 -16 22 -12 44 9 21 20 75 51 89 51 4 0 7 -4 7 -8z
m-2910 -60 c38 -19 49 -49 15 -44 -25 4 -86 62 -65 62 8 -1 31 -9 50 -18z
m211 -39 c3 -134 -10 -163 -69 -163 l-37 1 27 22 c49 40 55 109 11 123 -10 3
-24 8 -32 10 -18 6 56 63 82 64 14 0 17 -10 18 -57z m831 48 c13 -2 38 -59 38
-84 0 -14 -8 -35 -18 -47 -16 -20 -31 -24 -98 -27 -98 -6 -118 6 -118 66 1 69
47 100 144 95 25 -1 48 -2 52 -3z m-371 -78 c0 -10 3 -27 5 -38 9 -37 10 -269
2 -334 -9 -73 -23 -97 -36 -61 -8 21 -7 191 2 340 2 30 4 67 5 83 1 29 21 38
22 10z m-717 -166 c33 -128 27 -168 -17 -126 -41 40 -87 111 -87 135 0 12 12
37 26 54 25 29 28 30 44 15 10 -9 25 -44 34 -78z m-298 21 c35 -54 142 -324
153 -383 11 -59 -7 -84 -66 -92 -36 -5 -45 -2 -67 22 -50 54 -154 307 -160
391 -5 62 26 92 106 103 4 1 20 -18 34 -41z m-604 -50 c30 -29 83 -87 119
-128 35 -41 66 -77 69 -80 46 -45 263 -340 256 -347 -14 -15 -383 378 -447
477 -18 28 -41 51 -56 55 -24 6 -44 40 -36 63 10 24 41 11 95 -40z m3917 35
c-38 -50 -236 -238 -319 -303 l-45 -35 54 60 c66 73 99 139 80 161 -11 13 -9
14 14 9 39 -10 64 2 133 66 35 33 71 59 80 59 14 0 15 -3 3 -17z m-2730 -60
c11 -39 12 -203 1 -239 -6 -22 -9 -24 -9 -9 -2 54 -50 190 -84 238 -4 7 28 39
48 47 24 10 33 3 44 -37z m3486 28 c7 -13 22 -94 30 -166 3 -33 8 -67 10 -75
2 -8 7 -67 10 -130 4 -63 8 -131 10 -150 6 -55 7 -491 1 -530 -3 -19 -8 -62
-11 -95 -11 -123 -30 -171 -86 -219 -50 -42 -65 -45 -73 -11 -26 105 -28 868
-2 1130 16 156 21 176 61 223 28 33 40 39 50 23z m-2035 -8 c0 -5 -16 -26 -35
-48 -45 -51 -51 -72 -30 -95 26 -29 14 -117 -37 -265 -50 -145 -82 -190 -131
-177 -79 21 -82 259 -6 486 11 33 28 69 36 79 15 16 18 16 50 -3 45 -26 73
-25 114 4 40 29 39 28 39 19z m-602 -34 c47 -29 34 -124 -21 -149 -32 -15 -60
-60 -101 -160 l-18 -45 -9 36 c-8 37 -10 44 -28 138 -24 118 -9 160 64 185 44
15 83 14 113 -5z m724 -179 c26 -39 43 -70 38 -70 -20 0 -100 92 -100 115 0
14 3 25 8 25 4 -1 28 -32 54 -70z m556 -13 c-35 -45 -209 -222 -269 -274 -50
-43 -118 -87 -125 -80 -22 22 113 162 194 200 36 17 48 28 50 48 4 38 66 106
121 133 25 13 49 22 54 19 4 -2 -7 -23 -25 -46z m-1996 -44 c34 -40 28 -71
-11 -58 -23 7 -34 31 -26 56 8 24 18 24 37 2z m-1456 -24 c37 -22 123 -115
144 -153 18 -35 6 -71 -31 -88 -43 -22 -64 -13 -75 30 -6 26 -18 41 -38 51
-27 13 -28 16 -23 62 6 47 6 48 -17 39 -27 -10 -36 -5 -36 22 0 22 21 58 34
58 5 0 24 -9 42 -21z m3558 -41 c-38 -41 -137 -122 -127 -103 21 39 135 150
140 137 3 -7 -3 -22 -13 -34z m492 -34 c1 -40 -44 -92 -156 -178 -87 -67 -139
-96 -175 -96 -29 0 -30 3 -9 38 32 52 304 266 329 258 6 -1 10 -11 11 -22z
m-2689 -35 c27 -53 9 -239 -23 -239 -35 0 -52 149 -26 228 15 46 30 50 49 11z
m-432 -63 c25 -18 14 -39 -31 -61 -69 -33 -129 -15 -100 30 27 42 95 58 131
31z m1199 -172 c-34 -105 -101 -247 -113 -240 -22 14 72 269 117 319 26 29 25
8 -4 -79z m4399 54 c29 -64 44 -194 62 -539 6 -131 -20 -189 -86 -189 -36 0
-45 17 -54 105 -4 39 -8 81 -10 95 -11 92 -20 246 -20 368 l0 144 28 24 c39
33 62 31 80 -8z m-6195 -153 c45 -69 82 -128 82 -131 0 -9 -105 118 -143 175
-36 51 -46 81 -29 81 5 0 45 -56 90 -125z m3223 18 c16 -16 -4 -48 -49 -78
-46 -32 -70 -32 -78 -1 -8 33 9 60 48 79 35 17 62 17 79 0z m2593 -118 c29
-158 23 -411 -9 -444 -33 -34 -44 33 -40 243 2 153 8 214 23 239 7 14 20 -5
26 -38z m-2814 -85 c-15 -27 -130 -102 -225 -146 -77 -36 -109 -42 -121 -23
-8 14 20 36 90 73 28 15 96 51 151 80 100 53 127 58 105 16z m506 -52 c-3 -90
-49 -124 -61 -45 -7 45 5 90 33 120 16 18 17 18 23 0 4 -10 6 -43 5 -75z
m2129 -92 c-5 -76 -14 -115 -16 -65 -1 36 -1 121 0 149 1 20 3 22 11 10 5 -8
8 -51 5 -94z m-4559 30 c1 -10 -2 -30 -7 -45 -8 -21 -12 -23 -18 -11 -5 8 -7
26 -6 40 2 14 4 29 4 33 2 16 24 1 27 -17z m4204 -25 c0 -5 -27 -34 -60 -65
-61 -56 -116 -82 -135 -64 -12 11 28 45 119 100 64 39 76 44 76 29z m-5068
-153 c147 -154 149 -157 53 -90 -72 51 -125 103 -125 124 0 30 19 21 72 -34z
m5388 -157 c0 -62 -49 -82 -69 -29 -9 25 3 68 22 80 23 14 47 -11 47 -51z
m-1980 -48 c17 -53 50 -210 50 -237 0 -20 -49 74 -74 143 -28 77 -41 153 -32
178 6 15 8 14 22 -5 8 -12 23 -48 34 -79z m-620 -20 c0 -25 -110 -136 -184
-185 -77 -52 -70 -26 21 68 77 81 163 143 163 117z m3145 -24 c8 -25 -2 -69
-15 -69 -6 0 -10 20 -10 45 0 47 14 60 25 24z m-1925 -55 c0 -3 -13 -24 -29
-48 -17 -24 -34 -67 -40 -99 -10 -54 -35 -107 -50 -107 -7 0 -139 -108 -208
-171 -229 -206 -408 -354 -448 -369 -27 -10 -44 -2 -45 22 0 14 101 127 236
263 339 341 584 554 584 509z m1573 -14 c18 -68 -34 -622 -65 -699 l-11 -26
-6 25 c-16 57 12 569 35 667 12 51 37 69 47 33z m-6224 -50 c70 -38 123 -84
116 -102 -9 -23 -61 -48 -98 -48 -28 0 -40 6 -56 28 -34 49 -52 152 -25 152 3
0 32 -14 63 -30z m5915 -82 c15 -93 61 -213 95 -245 33 -33 55 -109 55 -199 0
-82 0 -85 -32 -114 -18 -16 -32 -37 -33 -47 -5 -120 -20 -144 -89 -145 -71 -1
-73 7 -65 217 3 99 8 198 10 220 3 22 7 85 11 140 3 55 7 111 9 125 2 14 4 45
4 69 1 36 3 41 15 32 7 -6 16 -30 20 -53z m-1760 -92 c12 -26 15 -41 8 -48
-16 -16 -52 27 -52 63 0 41 19 34 44 -15z m2400 -155 c3 -122 -11 -256 -34
-327 -17 -52 -31 -44 -46 28 -7 36 -7 270 1 330 4 29 14 64 22 77 15 23 15 23
35 4 16 -16 20 -36 22 -112z m-1630 -26 c0 -49 -5 -94 -14 -115 -17 -40 -21
-388 -6 -549 23 -255 62 -340 242 -531 120 -126 134 -145 134 -184 0 -32 -51
-91 -90 -104 -25 -9 -34 -7 -68 18 -44 31 -140 137 -207 225 -72 96 -126 217
-150 337 -4 17 -12 94 -20 193 -5 59 -5 325 0 407 5 78 23 190 36 225 6 15 20
38 31 50 16 17 19 30 15 58 -6 38 -5 40 23 25 23 -12 50 11 50 43 1 21 1 21
12 3 6 -11 11 -56 12 -101z m-1824 97 c0 -13 -136 -88 -229 -127 -199 -84
-364 -142 -976 -340 -367 -119 -492 -165 -625 -229 -99 -48 -116 -45 -48 7
160 124 463 300 631 367 72 28 231 74 296 85 68 11 162 24 221 30 98 11 107
12 220 35 123 25 189 46 325 108 150 67 185 79 185 64z m1667 -49 c28 -38 -48
-71 -91 -40 -22 16 -14 53 12 60 29 7 66 -2 79 -20z m-984 -37 c60 -34 109
-73 136 -108 10 -14 9 -23 -8 -55 -37 -73 -199 -232 -221 -218 -5 3 -3 22 4
43 7 20 16 53 20 73 5 29 14 40 41 53 19 10 35 23 35 30 0 17 -97 122 -106
114 -3 -4 1 -32 10 -63 19 -64 16 -74 -18 -68 -32 7 -36 -7 -45 -159 -1 -22
-28 -48 -44 -42 -59 22 -57 226 2 343 26 51 85 101 112 96 11 -2 48 -20 82
-39z m-3800 -155 c14 -12 17 -24 13 -54 -6 -38 -21 -67 -35 -67 -14 0 -51 78
-51 108 0 44 31 49 73 13z m4417 -63 c-122 -104 -430 -323 -430 -305 0 17 192
181 291 247 130 90 218 126 139 58z m248 -19 c-2 -19 -7 -33 -12 -32 -12 3
-19 50 -11 71 10 26 27 -2 23 -39z m628 -240 c-5 -64 -47 -132 -79 -127 -16 2
-23 11 -25 31 -3 23 2 29 27 38 30 11 41 26 48 69 10 70 34 62 29 -11z m835
31 c22 -12 26 -40 5 -40 -17 0 -76 47 -76 61 0 8 34 -2 71 -21z m-2002 -132
c42 -44 47 -176 12 -318 -21 -83 -55 -160 -71 -160 -19 0 -40 46 -40 87 0 24
11 66 25 97 32 69 31 72 -4 47 -53 -38 -79 -43 -102 -20 -30 30 -22 63 16 64
33 0 34 5 21 87 -10 58 6 94 54 119 45 25 65 24 89 -3z m1331 -22 c0 -27 -44
-71 -166 -163 -92 -70 -161 -145 -169 -185 -11 -49 -30 -53 -64 -11 -72 87
-82 149 -34 198 37 36 80 58 248 127 158 65 185 70 185 34z m1174 -21 c7 -33
-2 -90 -12 -80 -9 8 -13 66 -6 94 6 29 11 25 18 -14z m-6464 -180 c34 -28 48
-34 73 -30 16 3 34 8 39 11 18 11 6 -34 -22 -83 -17 -29 -32 -53 -34 -53 -2 0
-32 34 -65 76 -85 107 -80 153 9 79z m4526 -70 c35 -35 29 -79 -12 -83 -32 -2
-101 33 -118 61 -28 47 86 66 130 22z m1196 -152 c7 -28 -1 -42 -35 -60 -52
-27 -95 -33 -109 -16 -17 20 -2 40 52 69 53 28 86 31 92 7z m121 5 c9 -26 -12
-58 -38 -58 -29 0 -32 16 -9 48 17 24 39 29 47 10z m-1788 -113 c82 -16 119
-45 155 -122 36 -77 90 -295 90 -365 0 -82 -29 -58 -177 149 -113 157 -203
301 -203 324 0 26 48 31 135 14z m1202 -57 c7 -6 18 -28 25 -50 11 -38 10 -42
-11 -59 -55 -45 -161 -6 -161 58 0 52 102 87 147 51z m-3466 -65 c41 -33 68
-48 91 -49 18 0 61 -18 96 -38 34 -20 77 -42 95 -48 43 -15 56 -26 52 -46 -1
-9 -6 -57 -10 -107 -7 -96 -9 -105 -29 -105 -31 0 -309 321 -370 428 -15 26
19 10 75 -35z m1526 -205 c25 -32 39 -102 48 -238 7 -118 13 -150 28 -150 26
0 48 55 72 177 16 82 40 134 58 127 62 -23 162 -447 166 -708 1 -27 4 -46 9
-42 4 4 7 11 8 14 0 4 4 25 9 47 4 22 9 47 11 55 28 144 62 275 70 268 5 -6
21 -90 29 -155 4 -26 9 -59 11 -73 6 -28 5 -172 0 -210 -25 -166 -24 -162 -52
-285 -14 -60 -27 -118 -29 -127 -7 -34 -46 -133 -58 -149 -7 -9 -21 -21 -32
-27 -12 -6 -21 -22 -23 -37 -1 -14 -13 -54 -26 -88 -36 -92 -56 -166 -56 -210
0 -37 -1 -38 -28 -33 -16 4 -35 1 -45 -6 -18 -14 -82 -189 -91 -253 -23 -149
-72 -326 -92 -332 -6 -2 -16 22 -23 54 -29 129 -57 163 -139 163 -49 0 -67 13
-67 47 0 24 -3 27 -25 24 -77 -11 -220 -3 -296 18 -145 39 -200 46 -331 43
-57 -1 -103 0 -103 2 0 3 55 48 123 100 136 105 217 180 217 200 0 24 25 37
92 45 3 1 15 17 27 36 15 27 27 35 48 35 41 0 57 14 50 41 -5 19 6 35 63 91
132 129 311 387 345 498 7 23 7 24 -10 10 -10 -8 -44 -54 -77 -103 -91 -136
-178 -239 -330 -392 -154 -156 -319 -297 -418 -357 -50 -30 -73 -39 -101 -36
-30 3 -35 0 -31 -14 7 -26 -13 -45 -67 -63 -60 -20 -118 -25 -153 -13 -24 8
-26 13 -17 34 5 14 20 40 34 58 14 18 25 36 25 39 0 14 -34 6 -100 -23 -78
-34 -84 -35 -77 -16 7 17 -15 49 -63 92 -100 91 -156 304 -104 393 22 37 76
65 123 64 42 -1 49 -12 43 -72 -5 -58 18 -185 48 -264 45 -121 100 -147 177
-84 48 38 72 67 179 207 43 57 120 147 169 200 84 88 135 164 121 177 -17 17
-111 -47 -246 -167 -98 -88 -178 -149 -219 -169 l-33 -16 -37 42 c-20 23 -56
79 -80 125 -44 83 -80 141 -146 232 -55 76 -44 122 36 144 19 5 96 8 170 7
105 -3 139 0 158 12 18 12 43 13 125 8 111 -8 169 2 208 35 22 20 22 21 4 33
-49 31 -101 74 -119 98 -15 22 -17 33 -10 55 14 42 49 43 95 2 35 -32 125 -74
221 -102 27 -8 47 -13 45 -12 -23 21 -153 128 -181 150 -20 16 -37 32 -37 35
0 3 21 29 46 56 66 73 104 135 98 159 -8 34 81 172 160 247 18 17 21 17 37 3
9 -8 25 -48 34 -87 9 -40 21 -93 28 -120 18 -80 68 -110 83 -51 6 23 -1 131
-11 185 -3 13 -7 42 -10 64 -3 22 -9 65 -13 95 -5 31 -4 70 0 87 8 32 23 40
98 50 19 3 37 7 39 9 11 10 110 3 118 -8z m-480 -81 c-8 -96 -48 -172 -178
-332 -69 -85 -146 -158 -162 -152 -34 11 -5 104 52 169 18 20 51 46 75 57 51
25 77 59 101 131 30 93 87 190 111 190 4 0 4 -28 1 -63z m-417 -26 c0 -6 -4
-12 -9 -15 -5 -3 -11 -15 -14 -26 -5 -19 -2 -20 43 -14 47 6 49 5 56 -20 9
-36 -18 -141 -57 -222 -29 -61 -33 -65 -57 -59 -39 10 -131 82 -143 112 -11
30 12 82 66 148 72 88 115 124 115 96z m1739 -132 c26 -28 91 -160 91 -184 0
-18 -27 -55 -39 -55 -4 0 -7 18 -7 40 -1 28 -12 57 -36 93 -41 64 -60 106 -53
118 9 14 23 11 44 -12z m460 -99 c0 -48 -16 -101 -19 -67 -3 20 -3 87 -1 120
3 42 21 -5 20 -53z m1477 -58 c-4 -11 -31 -44 -61 -75 -62 -63 -135 -104 -161
-89 -14 8 -10 16 32 57 67 65 179 140 192 129 2 -1 1 -11 -2 -22z m-4858 -202
c5 -41 -38 -74 -95 -74 -37 -1 -48 3 -51 16 -4 19 27 50 72 72 43 22 70 17 74
-14z m-320 -61 c-6 -17 -108 -68 -124 -62 -21 8 1 32 51 54 45 21 78 24 73 8z
m-240 -81 c-7 -19 -63 -22 -78 -4 -11 14 -7 16 35 16 33 0 45 -4 43 -12z m941
-161 c40 -37 45 -57 16 -57 -19 0 -105 86 -105 105 0 13 3 14 24 3 13 -7 43
-30 65 -51z m-719 -163 c60 -28 90 -51 90 -69 0 -17 -77 -57 -103 -53 -27 4
-87 89 -87 124 0 32 29 31 100 -2z m780 -234 c-19 -36 -151 -107 -195 -106
-58 2 18 75 116 111 70 25 94 24 79 -5z m-31 -316 c40 -35 48 -51 76 -145 26
-88 1 -119 -93 -115 -40 2 -63 10 -94 32 -52 36 -56 47 -21 60 l28 11 -77 76
c-43 42 -78 77 -78 79 0 2 21 3 46 3 37 0 50 5 67 26 12 15 29 29 37 31 20 7
63 -16 109 -58z m2185 -278 c-7 -18 -50 -40 -63 -32 -32 20 17 73 50 55 10 -5
16 -15 13 -23z"/>
<path d="M3787 2192 c-32 -7 -170 -83 -227 -125 -54 -39 -160 -145 -160 -159
0 -12 12 -10 105 21 89 29 115 30 115 5 0 -27 25 -13 86 50 68 70 114 148 107
185 -4 29 -3 28 -26 23z"/>
<path d="M4 4909 c-8 -13 22 -36 61 -47 36 -10 45 3 19 29 -22 21 -71 32 -80
18z"/>
<path d="M5850 2502 c-58 -18 -115 -141 -93 -199 5 -12 11 -4 22 32 l16 50 53
5 c56 6 76 22 67 55 -2 11 -5 25 -5 31 0 14 -41 32 -60 26z"/>
<path d="M6930 1978 c0 -36 -44 -92 -195 -249 -150 -155 -209 -226 -230 -276
-8 -18 -18 -33 -22 -33 -4 0 -20 14 -35 32 l-27 33 6 -51 c5 -43 1 -61 -21
-105 -28 -58 -76 -128 -76 -112 0 5 7 32 15 59 25 84 18 92 -26 28 -22 -32
-64 -81 -92 -109 l-52 -50 40 -3 c79 -5 79 -13 3 -93 -51 -55 -101 -83 -135
-76 -27 5 -26 10 -8 -76 3 -11 -3 -17 -16 -18 -10 -1 -25 -2 -31 -3 -8 0 -16
-23 -19 -53 -4 -29 -17 -69 -29 -90 -15 -25 -20 -46 -16 -65 3 -15 3 -28 1
-28 -3 0 -28 11 -57 25 -70 34 -78 33 -71 -9 10 -64 -90 -216 -134 -202 -25 8
-52 -22 -91 -100 -22 -44 -39 -65 -61 -74 -29 -12 -37 -24 -46 -70 -6 -32 -24
-50 -49 -50 -31 0 -84 -55 -98 -101 -6 -22 -8 -42 -4 -46 3 -4 376 -9 827 -11
l821 -4 -5 898 c-3 495 -8 913 -11 929 -2 17 -8 55 -11 86 -4 38 -13 63 -26
75 -18 16 -19 16 -19 -8z m-600 -1598 c0 -5 -9 -19 -20 -30 -35 -35 -72 -20
-50 20 11 21 70 29 70 10z m-2 -220 c5 -34 -14 -47 -38 -25 -19 18 -26 45 -14
58 12 12 49 -11 52 -33z"/>
<path d="M6016 1134 c-20 -59 -21 -100 -2 -107 24 -9 38 19 39 78 1 76 -16 90
-37 29z"/>
<path d="M6124 1045 c-7 -19 -14 -40 -14 -47 1 -18 60 49 60 67 0 28 -31 15
-46 -20z"/>
</g>
</svg>
