<?xml version="1.0" standalone="no"?>
<!DOCTYPE svg PUBLIC "-//W3C//DTD SVG 20010904//EN"
 "http://www.w3.org/TR/2001/REC-SVG-20010904/DTD/svg10.dtd">
<svg version="1.0" xmlns="http://www.w3.org/2000/svg"
 width="178.000000pt" height="178.000000pt" viewBox="0 0 178.000000 178.000000"
 preserveAspectRatio="xMidYMid meet">

<g transform="translate(0.000000,178.000000) scale(0.100000,-0.100000)"
fill="#000000" stroke="none">
<path d="M3 1723 c3 -32 9 -67 13 -77 5 -14 4 -17 -4 -12 -9 5 -12 -22 -12
-105 l0 -112 47 -46 c27 -26 64 -59 83 -74 24 -18 32 -29 25 -36 -13 -13 -89
45 -80 60 4 5 0 9 -8 9 -7 0 -24 12 -38 28 l-24 27 -3 -33 c-2 -19 3 -38 12
-47 8 -9 18 -31 21 -49 5 -22 15 -37 31 -45 21 -9 23 -14 14 -31 l-11 -21 -29
21 c-15 11 -31 20 -34 20 -3 0 -6 -52 -5 -116 0 -103 2 -114 16 -102 9 7 24
32 35 57 27 64 56 101 74 94 8 -3 13 -12 10 -19 -8 -22 11 -16 28 8 22 31 20
35 -13 33 -25 -1 -28 1 -21 14 27 47 26 46 83 3 l55 -41 24 19 23 19 -53 47
c-45 39 -51 48 -40 62 17 20 106 77 136 87 23 7 23 5 21 -47 -3 -46 -1 -53 16
-56 33 -4 49 12 36 36 -20 38 -14 81 14 94 30 13 43 5 25 -17 -18 -22 1 -39
34 -31 25 6 38 36 16 36 -5 0 -10 -4 -10 -10 0 -22 -15 -8 -16 15 -2 20 6 30
36 45 21 10 40 17 43 14 3 -3 -1 -25 -10 -47 -8 -23 -16 -51 -18 -62 -1 -11
-3 -24 -4 -30 -1 -5 -5 -4 -10 4 -5 8 -11 9 -15 3 -10 -17 24 -43 52 -40 14 2
28 9 30 17 3 8 0 11 -7 7 -7 -5 -9 -1 -5 8 3 9 10 16 14 16 4 0 20 34 35 75
27 75 45 95 45 53 0 -44 3 -57 17 -62 17 -7 45 25 50 55 5 33 8 33 47 -2 58
-50 87 -122 49 -118 -35 3 -40 -1 -35 -26 2 -14 8 -25 13 -25 5 0 8 -6 6 -12
-1 -9 8 -12 27 -11 l29 2 -24 -17 c-20 -14 -49 -17 -159 -18 -116 -1 -141 -4
-182 -23 -64 -29 -82 -54 -21 -30 60 25 146 35 203 25 30 -5 76 -10 102 -11
47 0 47 0 26 -16 -12 -9 -37 -21 -55 -27 -29 -9 -33 -8 -22 4 20 24 2 28 -58
11 -32 -9 -99 -23 -149 -32 -49 -8 -115 -22 -144 -31 -73 -21 -263 -118 -304
-155 -19 -16 -41 -29 -50 -29 -10 0 -16 -9 -16 -24 0 -13 -7 -29 -15 -36 -12
-10 -15 -43 -15 -173 0 -149 1 -159 16 -141 15 17 15 17 0 -8 -9 -15 -16 -36
-16 -48 0 -19 4 -20 58 -14 31 3 72 10 91 15 19 5 37 6 39 4 7 -7 -46 -25 -72
-25 -13 0 -44 -3 -70 -6 l-46 -7 0 -218 0 -219 454 0 c354 0 455 3 459 13 4 9
6 9 6 0 1 -10 27 -13 94 -13 l94 0 16 38 c60 135 91 240 169 564 8 35 11 37
38 32 60 -12 124 69 101 128 -8 22 -6 27 11 35 18 8 26 4 47 -19 34 -38 102
-50 132 -22 11 10 18 26 16 35 -4 15 -1 16 24 7 16 -5 29 -12 29 -15 0 -14
-64 -83 -76 -83 -22 0 -104 -91 -111 -122 -5 -27 -21 -33 -35 -13 -4 6 -8 2
-8 -7 0 -10 9 -27 20 -38 42 -42 113 -37 137 10 22 45 42 85 51 105 13 26 78
95 90 95 6 0 13 -6 15 -12 3 -7 6 11 6 40 1 28 -3 52 -9 52 -5 0 -10 -3 -10
-7 0 -5 -25 -35 -55 -68 -30 -32 -55 -65 -55 -71 0 -12 -37 -30 -53 -26 -4 1
-20 -12 -36 -30 -18 -21 -30 -27 -35 -20 -4 7 12 31 40 59 26 27 41 40 34 30
-10 -14 -10 -21 -2 -29 9 -9 12 -8 12 5 0 13 64 93 152 191 19 21 24 56 9 56
-5 0 -7 -8 -4 -18 5 -20 -41 -69 -51 -54 -8 13 10 62 23 62 5 0 7 10 4 21 -5
19 -3 20 18 14 22 -6 22 -6 6 7 -17 12 -17 16 -2 50 12 30 15 83 15 273 0 129
-2 235 -5 235 -10 0 -153 -99 -160 -110 -4 -6 -11 -8 -16 -5 -5 4 -9 1 -9 -5
0 -6 -5 -8 -10 -5 -6 4 -9 1 -8 -7 2 -7 -4 -13 -13 -13 -9 0 -23 -6 -31 -13
-8 -6 -18 -9 -22 -5 -4 4 -4 0 0 -10 4 -12 2 -16 -7 -12 -20 7 -80 -32 -74
-47 4 -10 -6 -13 -37 -13 -24 0 -43 -6 -46 -13 -2 -7 -8 -10 -13 -6 -14 8 -11
-10 6 -32 16 -21 20 -38 6 -30 -5 3 -14 -1 -21 -10 -7 -8 -19 -13 -26 -10 -8
3 -11 0 -7 -10 6 -17 -8 -19 -24 -3 -8 8 -13 7 -18 -2 -5 -7 -4 -10 3 -5 6 3
13 2 17 -4 3 -5 -3 -10 -14 -10 -22 0 -49 39 -34 49 40 27 103 86 103 97 0 8
3 13 8 12 18 -5 63 19 134 73 43 32 124 90 180 128 57 39 111 77 121 84 14 12
17 31 17 121 l0 106 -83 0 -82 0 7 -87 c9 -130 9 -223 -1 -223 -5 0 -12 44
-15 98 -4 53 -9 123 -12 155 l-6 57 -83 0 -83 0 -60 -82 c-72 -100 -239 -265
-253 -251 -7 7 18 36 67 84 42 41 106 112 141 159 l65 85 -57 3 c-32 2 -59 1
-62 -2 -3 -2 1 -30 7 -62 11 -54 11 -58 -12 -81 -15 -14 -25 -19 -25 -11 0 39
-27 147 -35 142 -5 -3 -7 -12 -4 -19 6 -18 -22 -55 -42 -55 -15 0 -15 -2 -2
-10 17 -11 4 -12 -23 -2 -16 7 -15 11 12 47 17 22 31 43 31 48 0 4 -82 7 -182
7 l-181 0 37 -32 c29 -26 39 -43 43 -75 4 -30 2 -43 -6 -43 -7 0 -9 5 -6 10 4
6 2 25 -4 43 -13 38 -93 97 -133 97 -23 0 -28 -5 -33 -37 -15 -89 -59 -253
-68 -253 -5 0 -6 10 -2 23 11 35 42 177 49 225 l6 42 -88 0 -89 0 5 -30 c3
-23 0 -30 -12 -30 -11 0 -16 9 -16 30 l0 30 -61 0 -61 0 4 -67 c2 -47 -1 -68
-9 -70 -7 -3 -13 -3 -13 -1 -3 39 -12 116 -15 126 -3 8 -27 12 -75 12 -65 0
-70 -1 -56 -16 20 -19 20 -25 2 -18 -15 6 -15 8 14 -105 5 -19 7 -39 4 -43
-12 -19 -22 -4 -33 50 -25 116 -32 132 -58 132 -12 0 -22 -3 -21 -7 3 -10 -40
-92 -63 -122 -40 -51 -17 16 32 96 l21 33 -53 0 -52 0 6 -57z m1535 -95 c26
-128 34 -197 21 -177 -5 7 -9 28 -9 44 0 27 -32 184 -46 229 -4 11 -2 16 4 13
5 -4 19 -53 30 -109z m153 67 c3 18 8 -8 13 -63 6 -65 5 -97 -3 -105 -6 -6
-13 -9 -15 -6 -3 3 -7 54 -10 114 -3 63 -2 93 3 70 7 -39 7 -39 12 -10z
m-1394 -53 c12 -17 13 -26 5 -34 -7 -7 -13 -10 -15 -7 -60 73 -93 165 -36 99
17 -19 38 -45 46 -58z m188 60 c-3 -3 -11 0 -18 7 -9 10 -8 11 6 5 10 -3 15
-9 12 -12z m112 -39 c3 -7 -4 -11 -16 -10 -12 1 -21 7 -21 15 0 16 32 12 37
-5z m383 1 c0 -8 -5 -12 -10 -9 -6 4 -8 11 -5 16 9 14 15 11 15 -7z m75 -36
c-16 -12 -46 -38 -65 -59 -43 -44 -73 -42 -35 3 20 24 23 33 14 51 -9 21 -9
21 5 4 14 -18 16 -18 40 -2 14 10 26 14 26 9 0 -4 5 -3 12 4 7 7 17 12 23 12
5 0 -3 -10 -20 -22z m-710 -6 c-3 -3 -11 0 -18 7 -9 10 -8 11 6 5 10 -3 15 -9
12 -12z m45 -12 c0 -22 -5 -30 -17 -29 -11 0 -13 3 -5 6 6 2 12 11 12 19 0 8
-6 14 -12 14 -9 0 -8 4 2 10 20 13 20 14 20 -20z m220 5 c0 -15 -7 -20 -30
-21 -22 -1 -30 3 -30 17 0 19 14 27 43 26 10 -1 17 -9 17 -22z m-100 -55 c0
-33 -3 -60 -7 -60 -5 0 -7 15 -6 32 1 18 2 45 2 61 2 54 11 26 11 -33z m-181
-14 c1 -16 -1 -15 -18 5 -15 18 -17 27 -8 37 9 12 12 11 18 -5 4 -10 8 -26 8
-37z m-60 -12 c26 -68 26 -70 2 -77 -14 -3 -23 6 -40 47 -28 68 -26 80 10 85
3 1 16 -24 28 -55z m-120 -29 c33 -41 61 -78 61 -82 0 -4 -27 22 -60 57 -33
35 -60 68 -60 72 0 4 -4 8 -10 8 -5 0 -10 5 -10 10 0 23 20 6 79 -65z m927 53
c-13 -13 -36 -34 -52 -48 l-29 -25 23 26 c12 14 19 29 15 34 -5 4 -3 5 3 2 6
-4 19 2 29 13 10 11 22 20 26 20 4 0 -2 -10 -15 -22z m-677 -35 c-2 -35 -3
-40 -6 -18 -3 17 -9 35 -14 41 -5 6 -6 14 -2 17 16 17 23 4 22 -40z m359 38
c14 11 13 10 -2 -9 -11 -12 -14 -22 -9 -22 12 0 4 -43 -16 -92 -7 -19 -15 -26
-26 -22 -18 7 -20 60 -3 115 9 31 14 37 25 28 10 -9 17 -8 31 2z m535 -58 c13
-133 8 -255 -10 -275 -9 -10 -20 -18 -25 -18 -14 0 -10 317 4 340 7 11 16 20
19 20 3 0 9 -30 12 -67z m-673 37 c0 -11 -5 -20 -10 -20 -6 0 -16 -12 -22 -27
l-11 -28 -9 39 c-6 29 -5 42 4 48 24 15 48 9 48 -12z m180 -35 c14 -19 14 -19
-2 -6 -10 7 -18 18 -18 24 0 6 1 8 3 6 1 -2 9 -13 17 -24z m100 -39 c-30 -30
-58 -52 -63 -49 -9 5 40 52 56 53 4 0 7 5 7 11 0 13 29 38 45 39 5 0 -15 -24
-45 -54z m-800 -25 c0 -5 -7 -11 -15 -15 -9 -3 -15 0 -15 9 0 8 -5 15 -11 15
-6 0 -8 7 -5 16 3 8 2 12 -4 9 -12 -7 -14 8 -3 19 8 8 53 -38 53 -53z m335 49
c3 -5 1 -10 -4 -10 -6 0 -11 5 -11 10 0 6 2 10 4 10 3 0 8 -4 11 -10z m535 -3
c0 -2 -10 -12 -22 -23 l-23 -19 19 23 c18 21 26 27 26 19z m120 -21 c0 -13
-67 -66 -84 -66 -16 0 0 19 39 49 48 35 45 34 45 17z m-680 -31 c0 -19 -4 -35
-10 -35 -5 0 -10 16 -10 35 0 19 5 35 10 35 6 0 10 -16 10 -35z m-110 6 c0 -5
-9 -11 -20 -14 -20 -5 -26 3 -13 16 9 10 33 8 33 -2z m291 -67 c-11 -27 -20
-41 -20 -32 -1 18 30 90 36 84 2 -2 -5 -25 -16 -52z m1142 -52 c5 -69 4 -84
-9 -89 -8 -3 -17 -4 -19 -1 -3 2 -8 44 -11 92 -6 70 -4 90 7 96 20 13 26 -4
32 -98z m-1584 48 l23 -35 -26 30 c-14 17 -26 34 -26 39 0 11 0 11 29 -34z
m805 -7 c-13 -10 -20 -10 -23 -2 -4 14 19 30 33 22 5 -3 1 -12 -10 -20z m667
-126 c-8 -8 -11 9 -11 54 0 85 14 99 18 18 2 -34 -2 -67 -7 -72z m-711 96 c0
-11 -81 -56 -88 -49 -3 3 -3 7 -1 9 13 8 84 46 87 47 1 0 2 -3 2 -7z m127 -13
c1 -11 -2 -22 -8 -25 -10 -7 -13 28 -2 38 9 9 9 10 10 -13z m540 -42 c-2 -13
-4 -5 -4 17 -1 22 1 32 4 23 2 -10 2 -28 0 -40z m-1160 10 c-3 -8 -6 -5 -6 6
-1 11 2 17 5 13 3 -3 4 -12 1 -19z m1058 -8 c-10 -11 -25 -20 -34 -20 -10 0
-4 8 14 19 39 25 42 25 20 1z m-1264 -37 l24 -26 -27 19 c-15 10 -28 22 -28
27 0 12 5 8 31 -20z m863 -73 l6 -35 -15 30 c-16 33 -21 82 -6 55 5 -8 11 -31
15 -50z m496 45 c0 -8 -4 -15 -10 -15 -5 0 -10 7 -10 15 0 8 5 15 10 15 6 0
10 -7 10 -15z m-676 -36 c-10 -11 -28 -26 -39 -32 -13 -7 -10 0 10 21 33 35
60 45 29 11z m813 -1 c-3 -8 -6 -5 -6 6 -1 11 2 17 5 13 3 -3 4 -12 1 -19z
m-495 -10 c-7 -7 -12 -20 -12 -30 0 -9 -6 -21 -14 -25 -7 -4 -43 -35 -80 -68
-78 -70 -96 -81 -96 -63 0 14 189 197 205 198 5 0 4 -5 -3 -12z m404 -65 c-10
-123 -25 -156 -19 -43 5 100 8 120 19 120 4 0 4 -35 0 -77z m-1567 51 c21 -15
21 -18 7 -26 -20 -11 -32 -4 -39 22 -6 24 1 25 32 4z m1515 -76 c15 -8 20 -78
6 -78 -5 0 -10 -11 -10 -25 0 -19 -5 -25 -21 -25 -21 0 -21 3 -16 88 4 48 7
98 8 112 1 16 5 10 11 -20 6 -25 15 -48 22 -52z m-470 36 c3 -8 2 -12 -4 -9
-6 3 -10 10 -10 16 0 14 7 11 14 -7z m190 -72 c-11 -28 -4 -172 11 -208 7 -18
30 -48 49 -66 40 -37 44 -49 20 -69 -15 -12 -22 -8 -59 33 -27 30 -47 64 -54
93 -16 64 -13 221 5 236 8 6 11 16 7 22 -3 6 -1 7 5 3 7 -4 13 0 13 11 1 10 4
5 6 -10 3 -16 1 -36 -3 -45z m418 11 c-5 -84 -22 -91 -22 -10 0 47 4 67 13 67
8 0 11 -16 9 -57z m-912 22 c-25 -13 -97 -40 -160 -61 -169 -53 -232 -75 -262
-90 -54 -28 -41 -13 27 31 92 59 153 81 246 89 47 5 95 16 125 31 64 31 82 31
24 0z m244 -31 c2 -6 -12 -27 -31 -45 -23 -22 -34 -28 -30 -16 4 10 7 22 7 27
0 5 6 10 13 12 11 2 9 8 -6 23 -19 20 -19 20 -12 -4 5 -16 4 -21 -4 -17 -7 5
-11 -4 -11 -24 0 -21 -4 -30 -12 -27 -19 6 -14 74 7 97 17 19 19 19 46 3 16
-9 30 -22 33 -29z m216 36 c0 -5 -7 -10 -15 -10 -8 0 -15 5 -15 10 0 6 7 10
15 10 8 0 15 -4 15 -10z m-1217 -46 c3 -3 3 -13 0 -21 -5 -12 -7 -12 -14 -1
-15 23 -4 40 14 22z m1078 -49 c-69 -51 -89 -59 -39 -17 40 34 80 61 92 61 4
1 -19 -19 -53 -44z m106 23 c-3 -8 -6 -5 -6 6 -1 11 2 17 5 13 3 -3 4 -12 1
-19z m158 -67 c-6 -21 -25 -29 -25 -11 0 6 5 10 10 10 6 0 10 8 10 17 0 9 3
14 6 10 3 -3 3 -15 -1 -26z m220 11 c-3 -3 -11 0 -18 7 -9 10 -8 11 6 5 10 -3
15 -9 12 -12z m-505 -63 c0 -14 -5 -41 -11 -59 -10 -27 -13 -30 -21 -16 -6 10
-4 24 3 38 11 20 10 21 -3 11 -15 -13 -28 -8 -28 9 0 5 5 6 10 3 7 -4 9 2 5
18 -5 18 -2 28 12 35 21 13 33 -1 33 -39z m330 32 c0 -5 -18 -22 -40 -38 -22
-15 -43 -37 -46 -47 -6 -19 -7 -19 -20 -1 -25 33 -16 49 39 71 62 26 67 27 67
15z m297 -23 c-3 -7 -5 -2 -5 12 0 14 2 19 5 13 2 -7 2 -19 0 -25z m-1642 -29
c4 -6 13 -8 21 -5 12 5 12 2 3 -15 -6 -11 -11 -19 -12 -17 -1 1 -11 13 -21 26
-11 12 -14 22 -8 22 6 0 14 -5 17 -11z m1155 -24 c0 -17 -2 -18 -24 -9 -23 9
-20 24 4 24 11 0 20 -7 20 -15z m300 -34 c0 -11 -31 -24 -39 -16 -3 3 1 10 9
15 19 12 30 12 30 1z m30 -1 c0 -5 -5 -10 -11 -10 -5 0 -7 5 -4 10 3 6 8 10
11 10 2 0 4 -4 4 -10z m-443 -26 c22 -6 34 -32 48 -101 4 -18 3 -33 -2 -33 -8
1 -93 122 -93 133 0 9 18 9 47 1z m301 -27 c2 -11 -3 -17 -17 -17 -25 0 -38
19 -20 31 19 12 33 6 37 -14z m-868 -13 c0 3 10 0 23 -8 12 -8 27 -15 32 -16
6 0 10 -4 9 -10 -1 -5 -2 -22 -3 -37 -2 -27 -3 -27 -51 27 -49 55 -68 90 -30
55 11 -10 20 -15 20 -11z m374 -56 c3 -13 6 -38 6 -56 0 -44 17 -32 25 19 5
26 11 37 17 31 14 -14 38 -111 39 -162 1 -44 2 -44 14 20 7 36 14 58 15 50 7
-41 9 -57 11 -75 3 -46 -28 -185 -42 -185 -5 0 -9 -4 -9 -9 0 -5 -5 -22 -12
-38 -6 -15 -10 -34 -9 -42 1 -7 -2 -10 -8 -6 -6 3 -13 -1 -16 -9 -3 -9 -8 -24
-12 -33 -3 -10 -8 -31 -10 -46 -2 -16 -8 -39 -12 -50 -8 -20 -9 -19 -15 10 -6
27 -13 33 -32 33 -16 0 -23 4 -18 11 5 8 0 10 -17 6 -14 -4 -45 -1 -69 7 -25
7 -60 12 -77 10 l-33 -2 45 35 c25 18 45 38 45 43 0 6 7 10 15 10 8 0 15 5 15
10 0 6 7 10 16 10 8 0 13 4 9 9 -3 5 5 17 17 25 23 16 88 112 88 130 0 5 -13
-10 -28 -35 -49 -76 -192 -206 -213 -193 -7 4 -9 3 -5 -4 3 -6 -6 -13 -25 -17
-36 -8 -47 -1 -29 20 15 18 7 19 -23 4 -12 -7 -19 -8 -15 -4 5 5 -1 14 -11 22
-27 19 -45 77 -32 102 12 22 52 25 44 4 -3 -8 0 -34 7 -58 16 -56 37 -59 76
-8 42 56 47 62 73 87 13 13 22 29 20 35 -2 5 -29 -12 -58 -39 -30 -28 -60 -50
-67 -50 -6 0 -20 17 -29 38 -10 20 -26 46 -36 57 -28 31 -10 48 45 44 25 -2
46 -1 46 3 0 4 13 5 29 2 16 -3 37 -2 47 4 16 9 16 10 -4 21 -12 7 -22 18 -22
26 0 17 16 20 24 6 3 -5 21 -14 38 -20 l33 -11 -30 25 -29 24 22 24 c12 13 19
26 16 29 -7 7 36 68 48 68 4 0 11 -18 14 -40 4 -24 11 -39 18 -37 11 4 11 9 0
84 -6 38 -5 42 17 46 44 8 47 7 53 -15z m-131 -21 c-5 -27 -77 -116 -86 -107
-10 11 14 52 33 57 11 3 23 17 26 32 7 25 24 54 30 49 1 -2 0 -15 -3 -31z
m-109 1 c-5 -8 -2 -9 9 -5 20 8 22 -15 4 -56 -11 -26 -13 -27 -34 -12 -28 20
-28 25 -2 59 21 26 36 36 23 14z m461 -47 c12 -23 12 -31 2 -37 -6 -4 -9 -4
-5 1 4 4 1 17 -7 29 -8 11 -15 24 -15 28 0 16 10 7 25 -21z m102 -18 c-3 -10
-5 -4 -5 12 0 17 2 24 5 18 2 -7 2 -21 0 -30z m363 -18 c-13 -14 -31 -25 -39
-25 -11 0 -6 8 14 25 39 32 55 32 25 0z m-1220 -35 c0 -13 -28 -25 -38 -16 -3
4 0 11 8 16 20 13 30 12 30 0z m-90 -20 c-8 -5 -19 -10 -25 -10 -5 0 -3 5 5
10 8 5 20 10 25 10 6 0 3 -5 -5 -10z m-53 -16 c-3 -3 -12 -4 -19 -1 -8 3 -5 6
6 6 11 1 17 -2 13 -5z m239 -39 c9 -8 11 -15 6 -15 -5 0 -15 7 -22 15 -7 8 -9
15 -6 15 4 0 14 -7 22 -15z m-174 -46 c17 -9 18 -13 7 -20 -20 -12 -23 -11
-37 11 -14 23 -2 26 30 9z m174 -68 c-17 -11 -34 -17 -39 -14 -11 7 30 32 53
33 8 0 2 -9 -14 -19z m4 -64 c8 -7 16 -17 17 -22 1 -6 4 -17 8 -26 8 -22 -28
-31 -52 -13 -14 11 -15 13 -3 14 10 0 4 9 -15 25 -16 14 -23 22 -14 19 10 -3
20 -1 24 5 8 14 16 13 35 -2z m560 -71 c0 -3 -4 -8 -10 -11 -5 -3 -10 -1 -10
4 0 6 5 11 10 11 6 0 10 -2 10 -4z"/>
<path d="M934 544 c-18 -9 -43 -27 -55 -41 -23 -25 -21 -26 24 -8 10 4 17 3
17 -4 0 -7 11 0 25 15 14 15 25 33 25 40 0 17 2 17 -36 -2z"/>
<path d="M0 1246 c0 -2 7 -7 16 -10 8 -3 12 -2 9 4 -6 10 -25 14 -25 6z"/>
<path d="M1470 620 c-6 -12 -9 -26 -6 -33 2 -7 5 -4 5 6 1 11 7 17 19 15 9 -2
17 3 17 11 0 23 -23 24 -35 1z"/>
<path d="M1763 503 c3 -5 -18 -32 -47 -60 -29 -28 -56 -59 -60 -69 -6 -16 -9
-16 -17 -4 -9 12 -10 12 -5 -3 3 -10 -1 -28 -10 -40 l-16 -22 7 25 c5 23 5 23
-6 5 -6 -11 -19 -26 -27 -32 -14 -12 -14 -13 3 -13 17 0 16 -2 -5 -25 -12 -13
-28 -22 -33 -18 -6 4 -8 0 -4 -10 4 -10 2 -16 -6 -14 -7 1 -11 -4 -9 -12 1 -7
-2 -19 -8 -25 -5 -7 -6 -16 -2 -21 4 -4 -4 -2 -17 5 -14 7 -21 8 -17 1 9 -13
-23 -63 -35 -55 -5 3 -13 -6 -19 -20 -5 -14 -14 -26 -20 -26 -5 0 -10 -7 -10
-15 0 -8 -6 -15 -14 -15 -12 0 -26 -20 -26 -36 0 -2 95 -4 210 -4 l210 0 0
249 c0 178 -3 252 -12 257 -6 4 -8 3 -5 -3z m-153 -407 c0 -3 -4 -8 -10 -11
-5 -3 -10 -1 -10 4 0 6 5 11 10 11 6 0 10 -2 10 -4z m0 -56 c0 -5 -2 -10 -4
-10 -3 0 -8 5 -11 10 -3 6 -1 10 4 10 6 0 11 -4 11 -10z"/>
<path d="M1527 280 c-3 -11 -1 -20 4 -20 5 0 9 9 9 20 0 11 -2 20 -4 20 -2 0
-6 -9 -9 -20z"/>
<path d="M1556 263 c-6 -14 -5 -15 5 -6 7 7 10 15 7 18 -3 3 -9 -2 -12 -12z"/>
</g>
</svg>
